<svg width="121" height="33" viewBox="0 0 121 33" fill="none" xmlns="http://www.w3.org/2000/svg">
<path d="M4.56 28.67H15.54V32H0.465V0.634999H4.56V28.67ZM34.1088 32.315C31.1988 32.315 28.5438 31.64 26.1438 30.29C23.7438 28.91 21.8388 27.005 20.4288 24.575C19.0488 22.115 18.3588 19.355 18.3588 16.295C18.3588 13.235 19.0488 10.49 20.4288 8.06C21.8388 5.6 23.7438 3.695 26.1438 2.345C28.5438 0.964998 31.1988 0.274998 34.1088 0.274998C37.0488 0.274998 39.7188 0.964998 42.1188 2.345C44.5188 3.695 46.4088 5.585 47.7888 8.015C49.1688 10.445 49.8588 13.205 49.8588 16.295C49.8588 19.385 49.1688 22.145 47.7888 24.575C46.4088 27.005 44.5188 28.91 42.1188 30.29C39.7188 31.64 37.0488 32.315 34.1088 32.315ZM34.1088 28.76C36.2988 28.76 38.2638 28.25 40.0038 27.23C41.7738 26.21 43.1538 24.755 44.1438 22.865C45.1638 20.975 45.6738 18.785 45.6738 16.295C45.6738 13.775 45.1638 11.585 44.1438 9.725C43.1538 7.835 41.7888 6.38 40.0488 5.36C38.3088 4.34 36.3288 3.83 34.1088 3.83C31.8888 3.83 29.9088 4.34 28.1688 5.36C26.4288 6.38 25.0488 7.835 24.0288 9.725C23.0388 11.585 22.5438 13.775 22.5438 16.295C22.5438 18.785 23.0388 20.975 24.0288 22.865C25.0488 24.755 26.4288 26.21 28.1688 27.23C29.9388 28.25 31.9188 28.76 34.1088 28.76ZM79.0248 9.725C78.1548 7.895 76.8948 6.485 75.2448 5.495C73.5948 4.475 71.6748 3.965 69.4848 3.965C67.2948 3.965 65.3148 4.475 63.5448 5.495C61.8048 6.485 60.4248 7.925 59.4048 9.815C58.4148 11.675 57.9198 13.835 57.9198 16.295C57.9198 18.755 58.4148 20.915 59.4048 22.775C60.4248 24.635 61.8048 26.075 63.5448 27.095C65.3148 28.085 67.2948 28.58 69.4848 28.58C72.5448 28.58 75.0648 27.665 77.0448 25.835C79.0248 24.005 80.1798 21.53 80.5098 18.41H67.9998V15.08H84.8748V18.23C84.6348 20.81 83.8248 23.18 82.4448 25.34C81.0648 27.47 79.2498 29.165 76.9998 30.425C74.7498 31.655 72.2448 32.27 69.4848 32.27C66.5748 32.27 63.9198 31.595 61.5198 30.245C59.1198 28.865 57.2148 26.96 55.8048 24.53C54.4248 22.1 53.7348 19.355 53.7348 16.295C53.7348 13.235 54.4248 10.49 55.8048 8.06C57.2148 5.6 59.1198 3.695 61.5198 2.345C63.9198 0.964998 66.5748 0.274998 69.4848 0.274998C72.8148 0.274998 75.7548 1.1 78.3048 2.75C80.8848 4.4 82.7598 6.725 83.9298 9.725H79.0248ZM104.509 32.315C101.599 32.315 98.9442 31.64 96.5442 30.29C94.1442 28.91 92.2392 27.005 90.8292 24.575C89.4492 22.115 88.7592 19.355 88.7592 16.295C88.7592 13.235 89.4492 10.49 90.8292 8.06C92.2392 5.6 94.1442 3.695 96.5442 2.345C98.9442 0.964998 101.599 0.274998 104.509 0.274998C107.449 0.274998 110.119 0.964998 112.519 2.345C114.919 3.695 116.809 5.585 118.189 8.015C119.569 10.445 120.259 13.205 120.259 16.295C120.259 19.385 119.569 22.145 118.189 24.575C116.809 27.005 114.919 28.91 112.519 30.29C110.119 31.64 107.449 32.315 104.509 32.315ZM104.509 28.76C106.699 28.76 108.664 28.25 110.404 27.23C112.174 26.21 113.554 24.755 114.544 22.865C115.564 20.975 116.074 18.785 116.074 16.295C116.074 13.775 115.564 11.585 114.544 9.725C113.554 7.835 112.189 6.38 110.449 5.36C108.709 4.34 106.729 3.83 104.509 3.83C102.289 3.83 100.309 4.34 98.5692 5.36C96.8292 6.38 95.4492 7.835 94.4292 9.725C93.4392 11.585 92.9442 13.775 92.9442 16.295C92.9442 18.785 93.4392 20.975 94.4292 22.865C95.4492 24.755 96.8292 26.21 98.5692 27.23C100.339 28.25 102.319 28.76 104.509 28.76Z" fill="black"/>
</svg>
