<svg width="25" height="16" viewBox="0 0 25 16" fill="none" xmlns="http://www.w3.org/2000/svg">
<path d="M10.0694 7.02257C11.4497 6.36285 12.1701 5.36458 12.1701 3.81076C12.1701 0.746528 9.88715 0 7.2526 0H0V15.3819H7.4566C10.2517 15.3819 12.8776 14.0408 12.8776 10.9158C12.8776 8.98438 11.9618 7.55642 10.0694 7.02257ZM3.38108 2.62587H6.55382C7.77344 2.62587 8.87153 2.96875 8.87153 4.38368C8.87153 5.6901 8.01649 6.21528 6.8099 6.21528H3.38108V2.62587ZM6.99653 12.7691H3.38108V8.53299H7.06597C8.55469 8.53299 9.49653 9.15365 9.49653 10.7292C9.49653 12.283 8.3724 12.7691 6.99653 12.7691ZM22.5564 2.32205H16.3194V0.807292H22.5564V2.32205ZM25 9.97396C25 6.67969 23.0729 3.93229 19.579 3.93229C16.1849 3.93229 13.8802 6.48437 13.8802 9.82639C13.8802 13.2943 16.0634 15.6727 19.579 15.6727C22.2396 15.6727 23.9627 14.4748 24.7917 11.9271H22.092C21.8012 12.8776 20.6033 13.3811 19.6745 13.3811C17.8819 13.3811 16.9401 12.3307 16.9401 10.5469H24.974C24.987 10.3646 25 10.1693 25 9.97396ZM16.9444 8.61979C17.0443 7.15712 18.0165 6.24132 19.4835 6.24132C21.02 6.24132 21.7925 7.1441 21.9227 8.61979H16.9444Z" fill="black"/>
</svg>
