<svg width="60" height="60" viewBox="0 0 60 60" fill="none" xmlns="http://www.w3.org/2000/svg">
<rect width="60" height="60" fill="white"/>
<path d="M28.0694 29.0226C29.4497 28.3628 30.1701 27.3646 30.1701 25.8108C30.1701 22.7465 27.8872 22 25.2526 22H18V37.3819H25.4566C28.2517 37.3819 30.8776 36.0408 30.8776 32.9158C30.8776 30.9844 29.9618 29.5564 28.0694 29.0226ZM21.3811 24.6259H24.5538C25.7734 24.6259 26.8715 24.9687 26.8715 26.3837C26.8715 27.6901 26.0165 28.2153 24.8099 28.2153H21.3811V24.6259ZM24.9965 34.7691H21.3811V30.533H25.066C26.5547 30.533 27.4965 31.1536 27.4965 32.7292C27.4965 34.283 26.3724 34.7691 24.9965 34.7691ZM40.5564 24.322H34.3194V22.8073H40.5564V24.322ZM43 31.974C43 28.6797 41.0729 25.9323 37.579 25.9323C34.1849 25.9323 31.8802 28.4844 31.8802 31.8264C31.8802 35.2943 34.0634 37.6727 37.579 37.6727C40.2396 37.6727 41.9627 36.4748 42.7917 33.9271H40.092C39.8012 34.8776 38.6033 35.3811 37.6745 35.3811C35.8819 35.3811 34.9401 34.3307 34.9401 32.5469H42.974C42.987 32.3646 43 32.1693 43 31.974ZM34.9444 30.6198C35.0443 29.1571 36.0165 28.2413 37.4835 28.2413C39.02 28.2413 39.7925 29.1441 39.9227 30.6198H34.9444Z" fill="black"/>
</svg>
