<svg width="60" height="60" viewBox="0 0 60 60" fill="none" xmlns="http://www.w3.org/2000/svg">
<rect width="60" height="60" fill="white"/>
<path d="M29.946 24.3308C26.8406 24.3308 24.3357 26.8357 24.3357 29.9412C24.3357 33.0466 26.8406 35.5515 29.946 35.5515C33.0515 35.5515 35.5564 33.0466 35.5564 29.9412C35.5564 26.8357 33.0515 24.3308 29.946 24.3308ZM29.946 33.5886C27.9392 33.5886 26.2986 31.9529 26.2986 29.9412C26.2986 27.9294 27.9343 26.2937 29.946 26.2937C31.9578 26.2937 33.5935 27.9294 33.5935 29.9412C33.5935 31.9529 31.9529 33.5886 29.946 33.5886ZM37.0945 24.1013C37.0945 24.8289 36.5085 25.4099 35.7859 25.4099C35.0584 25.4099 34.4773 24.824 34.4773 24.1013C34.4773 23.3787 35.0632 22.7927 35.7859 22.7927C36.5085 22.7927 37.0945 23.3787 37.0945 24.1013ZM40.8103 25.4294C40.7273 23.6765 40.3269 22.1238 39.0427 20.8445C37.7634 19.5652 36.2107 19.1648 34.4578 19.0769C32.6511 18.9744 27.2361 18.9744 25.4294 19.0769C23.6814 19.1599 22.1287 19.5603 20.8445 20.8396C19.5603 22.1189 19.1648 23.6716 19.0769 25.4246C18.9744 27.2312 18.9744 32.6462 19.0769 34.4529C19.1599 36.2058 19.5603 37.7585 20.8445 39.0378C22.1287 40.3171 23.6765 40.7175 25.4294 40.8054C27.2361 40.908 32.6511 40.908 34.4578 40.8054C36.2107 40.7224 37.7634 40.322 39.0427 39.0378C40.322 37.7585 40.7224 36.2058 40.8103 34.4529C40.9128 32.6462 40.9128 27.2361 40.8103 25.4294ZM38.4763 36.3914C38.0955 37.3484 37.3582 38.0857 36.3962 38.4714C34.9558 39.0427 31.5378 38.9109 29.946 38.9109C28.3542 38.9109 24.9314 39.0378 23.4958 38.4714C22.5388 38.0906 21.8015 37.3533 21.4158 36.3914C20.8445 34.9509 20.9763 31.533 20.9763 29.9412C20.9763 28.3494 20.8494 24.9265 21.4158 23.491C21.7966 22.5339 22.5339 21.7966 23.4958 21.4109C24.9363 20.8396 28.3542 20.9714 29.946 20.9714C31.5378 20.9714 34.9607 20.8445 36.3962 21.4109C37.3533 21.7917 38.0906 22.5291 38.4763 23.491C39.0476 24.9314 38.9158 28.3494 38.9158 29.9412C38.9158 31.533 39.0476 34.9558 38.4763 36.3914Z" fill="black"/>
</svg>
