<svg width="60" height="60" viewBox="0 0 60 60" fill="none" xmlns="http://www.w3.org/2000/svg">
<rect width="60" height="60" fill="white"/>
<path d="M41.2084 24.6078C40.9358 23.5813 40.1326 22.7729 39.1128 22.4985C37.2642 22 29.8519 22 29.8519 22C29.8519 22 22.4395 22 20.591 22.4985C19.5711 22.7729 18.7679 23.5813 18.4953 24.6078C18 26.4683 18 30.3502 18 30.3502C18 30.3502 18 34.232 18.4953 36.0926C18.7679 37.1191 19.5711 37.8938 20.591 38.1681C22.4395 38.6667 29.8519 38.6667 29.8519 38.6667C29.8519 38.6667 37.2642 38.6667 39.1128 38.1681C40.1326 37.8938 40.9358 37.1191 41.2084 36.0926C41.7037 34.232 41.7037 30.3502 41.7037 30.3502C41.7037 30.3502 41.7037 26.4683 41.2084 24.6078ZM27.4276 33.8746V26.8257L33.6229 30.3503L27.4276 33.8746Z" fill="black"/>
</svg>
